<svg width="252" height="95" viewBox="0 0 252 95" fill="none" xmlns="http://www.w3.org/2000/svg">
<path d="M13.5176 59V17.06H22.9376V51.14H45.0176V59H13.5176ZM50.8418 59V17.06H83.0618V24.56H60.2618V34.22H78.9818V41.12H60.2618V51.5H83.5418V59H50.8418ZM185.912 59L182.792 50.24H164.252L161.132 59H151.532L167.912 17.06H179.552L195.932 59H185.912ZM166.952 42.68H180.092L173.492 24.02L166.952 42.68ZM201.018 59V17.06H218.298C225.538 17.06 231.158 18.84 235.158 22.4C239.158 25.92 241.158 31.04 241.158 37.76C241.158 44.84 239.158 50.16 235.158 53.72C231.158 57.24 225.378 59 217.818 59H201.018ZM210.318 51.62H218.658C222.858 51.62 226.018 50.4 228.138 47.96C230.258 45.52 231.318 42 231.318 37.4C231.318 33.12 230.258 29.88 228.138 27.68C226.058 25.48 222.998 24.38 218.958 24.38H210.318V51.62Z" fill="#131313"/>
<path d="M25.7729 80.1626L22.2929 90.6626H20.2229L17.6279 82.8926L14.9879 90.6626H12.9029L9.42293 80.1626H11.4479L14.0579 88.1426L16.7729 80.1626H18.5729L21.2279 88.1876L23.9129 80.1626H25.7729ZM52.3365 89.0276V90.6626H44.4615V80.1626H52.1265V81.7976H46.4115V84.5276H51.4815V86.1326H46.4115V89.0276H52.3365ZM78.5254 85.2476C79.2154 85.3976 79.7454 85.6976 80.1154 86.1476C80.4954 86.5876 80.6854 87.1576 80.6854 87.8576C80.6854 88.7576 80.3504 89.4526 79.6804 89.9426C79.0204 90.4226 78.0404 90.6626 76.7404 90.6626H71.9104V80.1626H76.4404C77.6104 80.1626 78.5154 80.3976 79.1554 80.8676C79.8054 81.3376 80.1304 82.0026 80.1304 82.8626C80.1304 83.4426 79.9854 83.9376 79.6954 84.3476C79.4154 84.7476 79.0254 85.0476 78.5254 85.2476ZM73.0204 81.0776V84.8876H76.3654C77.2154 84.8876 77.8704 84.7276 78.3304 84.4076C78.7904 84.0776 79.0204 83.6026 79.0204 82.9826C79.0204 82.3626 78.7904 81.8926 78.3304 81.5726C77.8704 81.2426 77.2154 81.0776 76.3654 81.0776H73.0204ZM76.7254 89.7476C77.6654 89.7476 78.3754 89.5876 78.8554 89.2676C79.3354 88.9476 79.5754 88.4476 79.5754 87.7676C79.5754 86.4576 78.6254 85.8026 76.7254 85.8026H73.0204V89.7476H76.7254Z" fill="#FB1B3D"/>
<path d="M103.214 90.7526C102.434 90.7526 101.684 90.6276 100.964 90.3776C100.254 90.1276 99.7039 89.7976 99.3139 89.3876L99.7489 88.5326C100.129 88.9126 100.634 89.2226 101.264 89.4626C101.894 89.6926 102.544 89.8076 103.214 89.8076C104.154 89.8076 104.859 89.6376 105.329 89.2976C105.799 88.9476 106.034 88.4976 106.034 87.9476C106.034 87.5276 105.904 87.1926 105.644 86.9426C105.394 86.6926 105.084 86.5026 104.714 86.3726C104.344 86.2326 103.829 86.0826 103.169 85.9226C102.379 85.7226 101.749 85.5326 101.279 85.3526C100.809 85.1626 100.404 84.8776 100.064 84.4976C99.7339 84.1176 99.5689 83.6026 99.5689 82.9526C99.5689 82.4226 99.7089 81.9426 99.9889 81.5126C100.269 81.0726 100.699 80.7226 101.279 80.4626C101.859 80.2026 102.579 80.0726 103.439 80.0726C104.039 80.0726 104.624 80.1576 105.194 80.3276C105.774 80.4876 106.274 80.7126 106.694 81.0026L106.319 81.8876C105.879 81.5976 105.409 81.3826 104.909 81.2426C104.409 81.0926 103.919 81.0176 103.439 81.0176C102.519 81.0176 101.824 81.1976 101.354 81.5576C100.894 81.9076 100.664 82.3626 100.664 82.9226C100.664 83.3426 100.789 83.6826 101.039 83.9426C101.299 84.1926 101.619 84.3876 101.999 84.5276C102.389 84.6576 102.909 84.8026 103.559 84.9626C104.329 85.1526 104.949 85.3426 105.419 85.5326C105.899 85.7126 106.304 85.9926 106.634 86.3726C106.964 86.7426 107.129 87.2476 107.129 87.8876C107.129 88.4176 106.984 88.9026 106.694 89.3426C106.414 89.7726 105.979 90.1176 105.389 90.3776C104.799 90.6276 104.074 90.7526 103.214 90.7526ZM128.541 81.1226H124.851V80.1626H133.341V81.1226H129.651V90.6626H128.541V81.1226ZM156.239 90.7526C154.879 90.7526 153.819 90.3626 153.059 89.5826C152.299 88.8026 151.919 87.6676 151.919 86.1776V80.1626H153.029V86.1326C153.029 87.3526 153.304 88.2626 153.854 88.8626C154.404 89.4626 155.199 89.7626 156.239 89.7626C157.289 89.7626 158.089 89.4626 158.639 88.8626C159.189 88.2626 159.464 87.3526 159.464 86.1326V80.1626H160.544V86.1776C160.544 87.6676 160.164 88.8026 159.404 89.5826C158.654 90.3626 157.599 90.7526 156.239 90.7526ZM180.989 80.1626H185.264C186.374 80.1626 187.354 80.3876 188.204 80.8376C189.054 81.2776 189.714 81.8976 190.184 82.6976C190.654 83.4876 190.889 84.3926 190.889 85.4126C190.889 86.4326 190.654 87.3426 190.184 88.1426C189.714 88.9326 189.054 89.5526 188.204 90.0026C187.354 90.4426 186.374 90.6626 185.264 90.6626H180.989V80.1626ZM185.204 89.7026C186.124 89.7026 186.929 89.5226 187.619 89.1626C188.309 88.7926 188.844 88.2876 189.224 87.6476C189.604 86.9976 189.794 86.2526 189.794 85.4126C189.794 84.5726 189.604 83.8326 189.224 83.1926C188.844 82.5426 188.309 82.0376 187.619 81.6776C186.929 81.3076 186.124 81.1226 185.204 81.1226H182.099V89.7026H185.204ZM210.482 80.1626H211.592V90.6626H210.482V80.1626ZM236.698 90.7526C235.658 90.7526 234.713 90.5226 233.863 90.0626C233.023 89.5926 232.363 88.9526 231.883 88.1426C231.413 87.3326 231.178 86.4226 231.178 85.4126C231.178 84.4026 231.413 83.4926 231.883 82.6826C232.363 81.8726 233.023 81.2376 233.863 80.7776C234.713 80.3076 235.658 80.0726 236.698 80.0726C237.738 80.0726 238.673 80.3026 239.503 80.7626C240.343 81.2226 241.003 81.8626 241.483 82.6826C241.963 83.4926 242.203 84.4026 242.203 85.4126C242.203 86.4226 241.963 87.3376 241.483 88.1576C241.003 88.9676 240.343 89.6026 239.503 90.0626C238.673 90.5226 237.738 90.7526 236.698 90.7526ZM236.698 89.7626C237.528 89.7626 238.278 89.5776 238.948 89.2076C239.618 88.8276 240.143 88.3076 240.523 87.6476C240.903 86.9776 241.093 86.2326 241.093 85.4126C241.093 84.5926 240.903 83.8526 240.523 83.1926C240.143 82.5226 239.618 82.0026 238.948 81.6326C238.278 81.2526 237.528 81.0626 236.698 81.0626C235.868 81.0626 235.113 81.2526 234.433 81.6326C233.763 82.0026 233.233 82.5226 232.843 83.1926C232.463 83.8526 232.273 84.5926 232.273 85.4126C232.273 86.2326 232.463 86.9776 232.843 87.6476C233.233 88.3076 233.763 88.8276 234.433 89.2076C235.113 89.5776 235.868 89.7626 236.698 89.7626Z" fill="#131313"/>
<path d="M119.549 6.8313L97.916 26.0765M97.916 26.0765L103.267 30.8371M97.916 26.0765V45.3216M119.549 45.3216L114.083 40.4597M119.549 45.3216V66.7952M119.549 45.3216L125.014 40.4597M141.181 26.0765L140.498 26.6842M114.083 40.4597L134.805 22.0248M114.083 40.4597L108.618 35.5977M114.083 40.4597V61.1229M108.618 35.5977L129.34 17.1629M108.618 35.5977L103.267 30.8371M108.618 35.5977V55.0455M103.267 30.8371L123.647 12.7061M103.267 30.8371V50.5887M125.014 40.4597V61.1229M125.014 40.4597L130.479 35.5977M130.479 35.5977V56.261M130.479 35.5977L134.805 31.7487M134.805 31.7487V50.5887M134.805 31.7487L140.498 26.6842M140.498 26.6842V46.5371" stroke="#FB1B3D" stroke-width="3"/>
</svg>
